{"title":"Altitude 2010.DvDRip,XviD.Ac3.Feel-Free","uid":5878391,"size":1141300786,"categoryP":"video","categoryS":"movies","magnet":"?xt=urn:btih:a51a4d65be6de78d10cef17ec81d79df54ab67db&amp;dn=Altitude+2010.DvDRip%2CXviD.Ac3.Feel-Free&amp;tr=udp%3A%2F%2Ftracker.openbittorrent.com%3A80&amp;tr=udp%3A%2F%2Fopen.demonii.com%3A1337&amp;tr=udp%3A%2F%2Ftracker.coppersurfer.tk%3A6969&amp;tr=udp%3A%2F%2Fexodus.desync.com%3A6969","seeders":0,"leechers":1,"uploader":"neon","files":-1,"time":1286739449,"description":"Genre:Horror | Sci-Fi | Thriller\nLanguage: English\n &lt;a href=&quot; http://www.imdb.com/title/tt1407049/&quot; rel=&quot;nofollow&quot; target=&quot;_NEW&quot;&gt; http://www.imdb.com/title/tt1407049/&lt;/a&gt;\nSource:DVD\n\n\nGeneral\nComplete name :Altitude.2010.DvDRip,XviD.Ac3.Feel-Free\nFormat : AVI\nFormat/Info : Audio Video Interleave\nFile size : 1.06 GiB\nDuration : 1h 30mn\nOverall bit rate : 1 687 Kbps\nVideo #0\nMuxing mode : Packed bitstream\nCodec ID : XVID\nCodec ID/Hint : XviD\nDuration : 1h 30mn\nBit rate : 1 229 Kbps\nWidth : 720 pixels\nHeight : 304 pixels\nDisplay aspect ratio : 2.35:1\nFrame rate : 23.976 fps\nResolution : 24 bits\nColorimetry : 4:2:0\nScan type : Progressive\nBits/(Pixel*Frame) : 0.234\nStream size : 793 MiB (73%)\nWriting library : XviD 1.2.1 (UTC 2008-12-04)\nAudio #1\nID : 1\nFormat : AC-3\nFormat/Info : Audio Coding 3\nCodec ID : 2000\nDuration : 1h 30mn\nBit rate mode : Constant\nBit rate : 448 Kbps\nChannel(s) : 6 channels\nChannel positions : Front: L C R, Surround: L R, LFE\nSampling rate : 48.0 KHz\nStream size : 289 MiB (27%)\nAlignment : Split accross interleaves\nInterleave, duration : 42 ms (1.00 video frame)\nInterleave, preload duration : 500 ms\n\nPlot:\nAfter a mysterious malfunction sends their small plane climbing out of control, a rookie pilot and her four teenage friends find themselves trapped in a deadly showdown with a supernatural force.","torrent":{"xt":"urn:btih:a51a4d65be6de78d10cef17ec81d79df54ab67db","amp;dn":"Altitude+2010.DvDRip%2CXviD.Ac3.Feel-Free","amp;tr":["udp%3A%2F%2Ftracker.openbittorrent.com%3A80","udp%3A%2F%2Fopen.demonii.com%3A1337","udp%3A%2F%2Ftracker.coppersurfer.tk%3A6969","udp%3A%2F%2Fexodus.desync.com%3A6969"],"infoHash":"a51a4d65be6de78d10cef17ec81d79df54ab67db","infoHashBuffer":{"type":"Buffer","data":[165,26,77,101,190,109,231,141,16,206,241,126,200,29,121,223,84,171,103,219]},"announce":[],"urlList":[]}}